<?xml version="1.0" encoding="utf-8" standalone="no"?>
<!DOCTYPE svg PUBLIC "-//W3C//DTD SVG 1.1//EN"
  "http://www.w3.org/Graphics/SVG/1.1/DTD/svg11.dtd">
<svg xmlns:xlink="http://www.w3.org/1999/xlink" width="691.2pt" height="302.4pt" viewBox="0 0 691.2 302.4" xmlns="http://www.w3.org/2000/svg" version="1.1">
 <metadata>
  <rdf:RDF xmlns:dc="http://purl.org/dc/elements/1.1/" xmlns:cc="http://creativecommons.org/ns#" xmlns:rdf="http://www.w3.org/1999/02/22-rdf-syntax-ns#">
   <cc:Work>
    <dc:type rdf:resource="http://purl.org/dc/dcmitype/StillImage"/>
    <dc:date>2026-08-23T17:45:55.001682</dc:date>
    <dc:format>image/svg+xml</dc:format>
    <dc:creator>
     <cc:Agent>
      <dc:title>Matplotlib v3.9.4, https://matplotlib.org/</dc:title>
     </cc:Agent>
    </dc:creator>
   </cc:Work>
  </rdf:RDF>
 </metadata>
 <defs>
  <style type="text/css">*{stroke-linejoin: round; stroke-linecap: butt}</style>
 </defs>
 <g id="figure_1">
  <g id="patch_1">
   <path d="M 0 302.4 
L 691.2 302.4 
L 691.2 0 
L 0 0 
z
" style="fill: #f9f7f2"/>
  </g>
  <g id="axes_1">
   <g id="patch_2">
    <path d="M 117.504 266.112 
L 663.552 266.112 
L 663.552 48.384 
L 117.504 48.384 
z
" style="fill: #f9f7f2"/>
   </g>
   <g id="LineCollection_1">
    <path d="M 121.446585 85.590684 
L 528.577608 85.590684 
" clip-path="url(#p0b4649ccd4)" style="fill: none; stroke: #cdd2cf; stroke-width: 1.4"/>
   </g>
   <g id="LineCollection_2">
    <path d="M 121.446585 113.15119 
L 356.306364 113.15119 
" clip-path="url(#p0b4649ccd4)" style="fill: none; stroke: #cdd2cf; stroke-width: 1.4"/>
   </g>
   <g id="LineCollection_3">
    <path d="M 121.446585 140.711696 
L 357.075168 140.711696 
" clip-path="url(#p0b4649ccd4)" style="fill: none; stroke: #cdd2cf; stroke-width: 1.4"/>
   </g>
   <g id="LineCollection_4">
    <path d="M 121.446585 193.076658 
L 467.014146 193.076658 
" clip-path="url(#p0b4649ccd4)" style="fill: none; stroke: #cdd2cf; stroke-width: 1.4"/>
   </g>
   <g id="LineCollection_5">
    <path d="M 121.446585 220.637165 
L 411.029441 220.637165 
" clip-path="url(#p0b4649ccd4)" style="fill: none; stroke: #cdd2cf; stroke-width: 1.4"/>
   </g>
   <g id="LineCollection_6">
    <path d="M 121.446585 248.197671 
L 391.986756 248.197671 
" clip-path="url(#p0b4649ccd4)" style="fill: none; stroke: #cdd2cf; stroke-width: 1.4"/>
   </g>
   <g id="matplotlib.axis_1">
    <g id="xtick_1">
     <g id="line2d_1">
      <defs>
       <path id="m49dc8371af" d="M 0 0 
L 0 4 
" style="stroke: #cdd2cf; stroke-width: 0.8"/>
      </defs>
      <g>
       <use xlink:href="#m49dc8371af" x="121.446585" y="266.112" style="fill: #cdd2cf; stroke: #cdd2cf; stroke-width: 0.8"/>
      </g>
     </g>
     <g id="text_1">
      <text style="fill: #626d72; font: 10px ui-monospace, SFMono-Regular, Menlo, Consolas, monospace; text-anchor: middle" x="121.446585" y="281.263563" transform="rotate(-0 121.446585 281.263563)">0</text>
     </g>
    </g>
    <g id="xtick_2">
     <g id="line2d_2">
      <g>
       <use xlink:href="#m49dc8371af" x="220.011206" y="266.112" style="fill: #cdd2cf; stroke: #cdd2cf; stroke-width: 0.8"/>
      </g>
     </g>
     <g id="text_2">
      <text style="fill: #626d72; font: 10px ui-monospace, SFMono-Regular, Menlo, Consolas, monospace; text-anchor: middle" x="220.011206" y="281.263563" transform="rotate(-0 220.011206 281.263563)">0.5</text>
     </g>
    </g>
    <g id="xtick_3">
     <g id="line2d_3">
      <g>
       <use xlink:href="#m49dc8371af" x="318.575827" y="266.112" style="fill: #cdd2cf; stroke: #cdd2cf; stroke-width: 0.8"/>
      </g>
     </g>
     <g id="text_3">
      <text style="fill: #626d72; font: 10px ui-monospace, SFMono-Regular, Menlo, Consolas, monospace; text-anchor: middle" x="318.575827" y="281.263563" transform="rotate(-0 318.575827 281.263563)">1.0</text>
     </g>
    </g>
    <g id="xtick_4">
     <g id="line2d_4">
      <g>
       <use xlink:href="#m49dc8371af" x="417.140448" y="266.112" style="fill: #cdd2cf; stroke: #cdd2cf; stroke-width: 0.8"/>
      </g>
     </g>
     <g id="text_4">
      <text style="fill: #626d72; font: 10px ui-monospace, SFMono-Regular, Menlo, Consolas, monospace; text-anchor: middle" x="417.140448" y="281.263563" transform="rotate(-0 417.140448 281.263563)">1.5</text>
     </g>
    </g>
    <g id="xtick_5">
     <g id="line2d_5">
      <g>
       <use xlink:href="#m49dc8371af" x="515.705069" y="266.112" style="fill: #cdd2cf; stroke: #cdd2cf; stroke-width: 0.8"/>
      </g>
     </g>
     <g id="text_5">
      <text style="fill: #626d72; font: 10px ui-monospace, SFMono-Regular, Menlo, Consolas, monospace; text-anchor: middle" x="515.705069" y="281.263563" transform="rotate(-0 515.705069 281.263563)">2.0</text>
     </g>
    </g>
   </g>
   <g id="matplotlib.axis_2"/>
   <g id="patch_3">
    <path d="M 117.504 266.112 
L 663.552 266.112 
" style="fill: none; stroke: #cdd2cf; stroke-width: 0.8; stroke-linejoin: miter; stroke-linecap: square"/>
   </g>
   <g id="line2d_6">
    <defs>
     <path id="m6976a55ac8" d="M 0 5.5 
C 1.458617 5.5 2.857689 4.920485 3.889087 3.889087 
C 4.920485 2.857689 5.5 1.458617 5.5 0 
C 5.5 -1.458617 4.920485 -2.857689 3.889087 -3.889087 
C 2.857689 -4.920485 1.458617 -5.5 0 -5.5 
C -1.458617 -5.5 -2.857689 -4.920485 -3.889087 -3.889087 
C -4.920485 -2.857689 -5.5 -1.458617 -5.5 0 
C -5.5 1.458617 -4.920485 2.857689 -3.889087 3.889087 
C -2.857689 4.920485 -1.458617 5.5 0 5.5 
z
" style="stroke: #626d72; stroke-width: 2.6"/>
    </defs>
    <g clip-path="url(#p0b4649ccd4)">
     <use xlink:href="#m6976a55ac8" x="528.577608" y="85.590684" style="fill: #f9f7f2; stroke: #626d72; stroke-width: 2.6"/>
    </g>
   </g>
   <g id="text_6">
    <text style="fill: #172023; font: 12px ui-monospace, SFMono-Regular, Menlo, Consolas, monospace; text-anchor: start" x="554.20441" y="88.933809" transform="rotate(-0 554.20441 88.933809)">2.0653</text>
   </g>
   <g id="text_7">
    <text style="fill: #626d72; font: 12px Inter, ui-sans-serif, system-ui, sans-serif; text-anchor: end" x="109.61883" y="88.901934" transform="rotate(-0 109.61883 88.901934)">Shipping</text>
   </g>
   <g id="line2d_7">
    <defs>
     <path id="m5e957b8017" d="M 0 5.5 
C 1.458617 5.5 2.857689 4.920485 3.889087 3.889087 
C 4.920485 2.857689 5.5 1.458617 5.5 0 
C 5.5 -1.458617 4.920485 -2.857689 3.889087 -3.889087 
C 2.857689 -4.920485 1.458617 -5.5 0 -5.5 
C -1.458617 -5.5 -2.857689 -4.920485 -3.889087 -3.889087 
C -4.920485 -2.857689 -5.5 -1.458617 -5.5 0 
C -5.5 1.458617 -4.920485 2.857689 -3.889087 3.889087 
C -2.857689 4.920485 -1.458617 5.5 0 5.5 
z
" style="stroke: #07716c; stroke-width: 2.6"/>
    </defs>
    <g clip-path="url(#p0b4649ccd4)">
     <use xlink:href="#m5e957b8017" x="356.306364" y="113.15119" style="fill: #07716c; stroke: #07716c; stroke-width: 2.6"/>
    </g>
   </g>
   <g id="text_8">
    <text style="fill: #172023; font: 700 12px ui-monospace, SFMono-Regular, Menlo, Consolas, monospace; text-anchor: start" x="381.933165" y="116.46244" transform="rotate(-0 381.933165 116.46244)">1.1914</text>
   </g>
   <g id="text_9">
    <text style="fill: #172023; font: 700 12px Inter, ui-sans-serif, system-ui, sans-serif; text-anchor: end" x="109.61883" y="116.46244" transform="rotate(-0 109.61883 116.46244)">Champion</text>
   </g>
   <g id="line2d_8">
    <g clip-path="url(#p0b4649ccd4)">
     <use xlink:href="#m5e957b8017" x="357.075168" y="140.711696" style="fill: #07716c; stroke: #07716c; stroke-width: 2.6"/>
    </g>
   </g>
   <g id="text_10">
    <text style="fill: #172023; font: 700 12px ui-monospace, SFMono-Regular, Menlo, Consolas, monospace; text-anchor: start" x="382.701969" y="144.022946" transform="rotate(-0 382.701969 144.022946)">1.1953</text>
   </g>
   <g id="text_11">
    <text style="fill: #172023; font: 700 12px Inter, ui-sans-serif, system-ui, sans-serif; text-anchor: end" x="109.61883" y="144.022946" transform="rotate(-0 109.61883 144.022946)">AM1</text>
   </g>
   <g id="line2d_9">
    <g clip-path="url(#p0b4649ccd4)">
     <use xlink:href="#m6976a55ac8" x="467.014146" y="193.076658" style="fill: #f9f7f2; stroke: #626d72; stroke-width: 2.6"/>
    </g>
   </g>
   <g id="text_12">
    <text style="fill: #172023; font: 12px ui-monospace, SFMono-Regular, Menlo, Consolas, monospace; text-anchor: start" x="492.640947" y="196.419783" transform="rotate(-0 492.640947 196.419783)">1.7530</text>
   </g>
   <g id="text_13">
    <text style="fill: #626d72; font: 12px Inter, ui-sans-serif, system-ui, sans-serif; text-anchor: end" x="109.61883" y="196.387908" transform="rotate(-0 109.61883 196.387908)">Shipping</text>
   </g>
   <g id="line2d_10">
    <g clip-path="url(#p0b4649ccd4)">
     <use xlink:href="#m5e957b8017" x="411.029441" y="220.637165" style="fill: #07716c; stroke: #07716c; stroke-width: 2.6"/>
    </g>
   </g>
   <g id="text_14">
    <text style="fill: #172023; font: 700 12px ui-monospace, SFMono-Regular, Menlo, Consolas, monospace; text-anchor: start" x="436.656243" y="223.948415" transform="rotate(-0 436.656243 223.948415)">1.4690</text>
   </g>
   <g id="text_15">
    <text style="fill: #172023; font: 700 12px Inter, ui-sans-serif, system-ui, sans-serif; text-anchor: end" x="109.61883" y="223.948415" transform="rotate(-0 109.61883 223.948415)">Champion</text>
   </g>
   <g id="line2d_11">
    <g clip-path="url(#p0b4649ccd4)">
     <use xlink:href="#m5e957b8017" x="391.986756" y="248.197671" style="fill: #07716c; stroke: #07716c; stroke-width: 2.6"/>
    </g>
   </g>
   <g id="text_16">
    <text style="fill: #172023; font: 700 12px ui-monospace, SFMono-Regular, Menlo, Consolas, monospace; text-anchor: start" x="417.613558" y="251.508921" transform="rotate(-0 417.613558 251.508921)">1.3724</text>
   </g>
   <g id="text_17">
    <text style="fill: #172023; font: 700 12px Inter, ui-sans-serif, system-ui, sans-serif; text-anchor: end" x="109.61883" y="251.508921" transform="rotate(-0 109.61883 251.508921)">AM1</text>
   </g>
   <g id="text_18">
    <text style="fill: #626d72; font: 11px ui-monospace, SFMono-Regular, Menlo, Consolas, monospace; text-anchor: start" x="121.446585" y="67.400749" transform="rotate(-0 121.446585 67.400749)">Validation · 279 genomes</text>
   </g>
   <g id="text_19">
    <text style="fill: #626d72; font: 11px ui-monospace, SFMono-Regular, Menlo, Consolas, monospace; text-anchor: start" x="121.446585" y="174.886724" transform="rotate(-0 121.446585 174.886724)">Test · 299 genomes</text>
   </g>
  </g>
  <g id="text_20">
   <text style="fill: #172023; font: 700 15px Inter, ui-sans-serif, system-ui, sans-serif; text-anchor: start" x="117.504" y="15.12" transform="rotate(-0 117.504 15.12)">Contamination on held-out genomes</text>
  </g>
  <g id="text_21">
   <text style="fill: #626d72; font: 10.5px ui-monospace, SFMono-Regular, Menlo, Consolas, monospace; text-anchor: start" x="117.504" y="34.776" transform="rotate(-0 117.504 34.776)">lower is better · retrained networks in teal</text>
  </g>
 </g>
 <defs>
  <clipPath id="p0b4649ccd4">
   <rect x="117.504" y="48.384" width="546.048" height="217.728"/>
  </clipPath>
 </defs>
</svg>
